<svg t="1723086563870" class="icon" viewBox="0 0 1024 1024" version="1.1" xmlns="http://www.w3.org/2000/svg" p-id="8241" width="16" height="16"><path d="M192 981.333333C128 977.066667 81.066667 925.866667 85.333333 861.866667V332.8C81.066667 268.8 128 217.6 192 213.333333h473.6c59.733333 4.266667 106.666667 55.466667 102.4 119.466667v533.333333c4.266667 59.733333-42.666667 115.2-106.666667 119.466667h-469.333333zM170.666667 320v554.666667c0 12.8 8.533333 21.333333 21.333333 21.333333h469.333333c12.8 0 21.333333-8.533333 21.333334-21.333333v-554.666667c0-12.8-8.533333-21.333333-21.333334-21.333333h-469.333333c-12.8 0-21.333333 8.533333-21.333333 21.333333zM298.666667 810.666667c-25.6 0-42.666667-17.066667-42.666667-42.666667s17.066667-42.666667 42.666667-42.666667h256c25.6 0 42.666667 17.066667 42.666666 42.666667s-17.066667 42.666667-42.666666 42.666667H298.666667z m554.666666 0V170.666667c0-25.6-17.066667-42.666667-42.666666-42.666667H256c0-46.933333 38.4-85.333333 85.333333-85.333333h512c46.933333 0 85.333333 38.4 85.333334 85.333333v597.333333c0 46.933333-38.4 85.333333-85.333334 85.333334zM298.666667 640c-25.6 0-42.666667-17.066667-42.666667-42.666667s17.066667-42.666667 42.666667-42.666666h256c25.6 0 42.666667 17.066667 42.666666 42.666666s-17.066667 42.666667-42.666666 42.666667H298.666667z m0-170.666667c-25.6 0-42.666667-17.066667-42.666667-42.666666s17.066667-42.666667 42.666667-42.666667h256c25.6 0 42.666667 17.066667 42.666666 42.666667s-17.066667 42.666667-42.666666 42.666666H298.666667z" p-id="8242" fill="#8a95a7"></path></svg>