<svg className="icon" viewBox="0 0 1024 1024" version="1.1" xmlns="http://www.w3.org/2000/svg" width="20" height="20"><path d="M51.064471 933.800659V536.807906c-1.686588-57.124141 6.550588-110.760659 24.704-160.915577 18.151906-50.151906 43.604329-94.281788 76.544-132.401694 32.834259-38.008471 72.113694-69.5808 118.049129-94.713976 45.824-25.021741 95.551247-41.071435 149.189271-47.932235v171.257976c-65.773929 22.491859-110.754635 55.741741-134.936095 99.880659-24.286871 44.135906-36.317365 98.195576-36.317364 162.177506h171.247435v399.63407H51.068988l-0.004517 0.006024z m552.728094 0V536.807906c-1.796518-57.124141 6.437647-110.760659 24.598588-160.915577 18.159435-50.151906 43.711247-94.281788 76.542494-132.401694 32.835765-38.008471 72.222118-69.583812 118.049129-94.713976 45.825506-25.026259 95.656659-41.071435 149.296189-47.932235V272.097882c-65.779953 22.490353-110.759153 55.746259-134.934589 99.885177-24.286871 44.135906-36.315859 98.189553-36.315858 162.171482h171.251953v399.640094H603.792565v0.006024z m0 0" fill="#556ee8"></path></svg>