<svg xmlns="http://www.w3.org/2000/svg" viewBox="0 0 12 12" focusable="false" fill="#8a95a7" class="chakra-icon css-1qudlmv"><path d="M4.827 10.979a4.417 4.417 0 0 1-2.363-1.593c-.61-.79-.914-1.7-.914-2.73 0-.533.09-1.041.267-1.523a4.61 4.61 0 0 1 .76-1.326.52.52 0 0 1 .38-.176.538.538 0 0 1 .407.176c.103.103.157.23.162.379a.632.632 0 0 1-.148.42c-.225.29-.398.609-.52.955a3.272 3.272 0 0 0-.183 1.095c0 .758.223 1.434.668 2.028.446.594 1.02.999 1.723 1.214a.594.594 0 0 1 .302.21c.08.103.12.215.12.337a.542.542 0 0 1-.197.442.493.493 0 0 1-.464.091Zm2.446 0a.484.484 0 0 1-.464-.099.561.561 0 0 1-.077-.772.597.597 0 0 1 .302-.21 3.412 3.412 0 0 0 1.723-1.221 3.26 3.26 0 0 0 .668-2.021c0-.936-.328-1.731-.984-2.386-.657-.655-1.453-.982-2.391-.982h-.042l.225.224a.532.532 0 0 1 .155.393c0 .16-.052.29-.155.393a.534.534 0 0 1-.394.154.534.534 0 0 1-.394-.154L4.265 3.12a.49.49 0 0 1-.12-.182.634.634 0 0 1 0-.421.499.499 0 0 1 .12-.183l1.18-1.179A.534.534 0 0 1 5.84 1c.16 0 .29.051.394.154a.532.532 0 0 1 .155.393c0 .16-.052.29-.155.393l-.225.225h.042c1.256 0 2.32.435 3.192 1.305.872.87 1.308 1.932 1.308 3.186 0 1.02-.305 1.927-.914 2.723a4.403 4.403 0 0 1-2.363 1.6Z"></path></svg>